<?xml version="1.0" standalone="no"?><!DOCTYPE svg PUBLIC "-//W3C//DTD SVG 1.1//EN" "http://www.w3.org/Graphics/SVG/1.1/DTD/svg11.dtd"><svg t="1534521996900" class="icon" style="" viewBox="0 0 1024 1024" version="1.1" xmlns="http://www.w3.org/2000/svg" p-id="2214" xmlns:xlink="http://www.w3.org/1999/xlink" width="24" height="24"><defs><style type="text/css"></style></defs><path d="M812.8 787.2l-38.4 38.4c-12.8 12.8-25.6 12.8-38.4 0L512 582.4l-217.6 230.4c-6.4 12.8-25.6 12.8-32 0l-32-38.4c-6.4-12.8-6.4-25.6 0-38.4L441.6 512 211.2 275.2c-12.8-12.8-12.8-25.6 0-38.4l38.4-38.4C256 192 275.2 192 281.6 204.8L512 441.6l217.6-230.4c6.4-12.8 25.6-12.8 32 0l32 38.4c6.4 12.8 6.4 25.6 0 38.4L582.4 512l230.4 236.8C819.2 761.6 819.2 774.4 812.8 787.2z" p-id="2215"></path></svg>